<svg xmlns="http://www.w3.org/2000/svg" xmlns:xlink="http://www.w3.org/1999/xlink" width="500" zoomAndPan="magnify" viewBox="0 0 375 374.999991" height="500" preserveAspectRatio="xMidYMid meet" version="1.0"><defs><g/><clipPath id="id1"><path d="M 18.863281 18.6875 L 356.363281 18.6875 L 356.363281 356.1875 L 18.863281 356.1875 Z M 18.863281 18.6875 " clip-rule="nonzero"/></clipPath></defs><path fill="#ffffff" d="M 187.5 0 C 83.945312 0 0 83.945312 0 187.5 C 0 291.054688 83.945312 375 187.5 375 C 291.054688 375 375 291.054688 375 187.5 C 375 83.945312 291.054688 0 187.5 0 " fill-opacity="1" fill-rule="nonzero"/><g clip-path="url(#id1)"><path fill="#000000" d="M 187.613281 356.1875 C 94.5625 356.1875 18.863281 280.484375 18.863281 187.4375 C 18.863281 94.386719 94.5625 18.6875 187.613281 18.6875 C 280.660156 18.6875 356.363281 94.386719 356.363281 187.4375 C 356.363281 280.484375 280.660156 356.1875 187.613281 356.1875 Z M 187.613281 21.675781 C 96.214844 21.675781 21.851562 96.039062 21.851562 187.4375 C 21.851562 278.835938 96.214844 353.195312 187.613281 353.195312 C 279.011719 353.195312 353.371094 278.835938 353.371094 187.4375 C 353.371094 96.039062 279.011719 21.675781 187.613281 21.675781 Z M 187.613281 21.675781 " fill-opacity="1" fill-rule="nonzero"/></g><g fill="#000000" fill-opacity="1"><g transform="translate(37.688103, 201.749987)"><g><path d="M 9.796875 -22.796875 L 9.796875 -15.40625 L 22.765625 -15.40625 L 22.765625 -10.203125 L 9.796875 -10.203125 L 9.796875 0 L 3.3125 0 L 3.3125 -28 L 24.484375 -28 L 24.484375 -22.796875 Z M 9.796875 -22.796875 "/></g></g></g><g fill="#000000" fill-opacity="1"><g transform="translate(77.645553, 201.749987)"><g><path d="M 16.875 0.484375 C 13.96875 0.484375 11.347656 -0.140625 9.015625 -1.390625 C 6.679688 -2.648438 4.851562 -4.378906 3.53125 -6.578125 C 2.21875 -8.773438 1.5625 -11.25 1.5625 -14 C 1.5625 -16.75 2.21875 -19.222656 3.53125 -21.421875 C 4.851562 -23.617188 6.679688 -25.34375 9.015625 -26.59375 C 11.347656 -27.851562 13.96875 -28.484375 16.875 -28.484375 C 19.78125 -28.484375 22.394531 -27.851562 24.71875 -26.59375 C 27.039062 -25.34375 28.867188 -23.617188 30.203125 -21.421875 C 31.535156 -19.222656 32.203125 -16.75 32.203125 -14 C 32.203125 -11.25 31.535156 -8.773438 30.203125 -6.578125 C 28.867188 -4.378906 27.039062 -2.648438 24.71875 -1.390625 C 22.394531 -0.140625 19.78125 0.484375 16.875 0.484375 Z M 16.875 -5.046875 C 18.53125 -5.046875 20.023438 -5.421875 21.359375 -6.171875 C 22.691406 -6.929688 23.738281 -7.992188 24.5 -9.359375 C 25.257812 -10.722656 25.640625 -12.269531 25.640625 -14 C 25.640625 -15.726562 25.257812 -17.273438 24.5 -18.640625 C 23.738281 -20.003906 22.691406 -21.0625 21.359375 -21.8125 C 20.023438 -22.570312 18.53125 -22.953125 16.875 -22.953125 C 15.226562 -22.953125 13.738281 -22.570312 12.40625 -21.8125 C 11.070312 -21.0625 10.023438 -20.003906 9.265625 -18.640625 C 8.503906 -17.273438 8.125 -15.726562 8.125 -14 C 8.125 -12.269531 8.503906 -10.722656 9.265625 -9.359375 C 10.023438 -7.992188 11.070312 -6.929688 12.40625 -6.171875 C 13.738281 -5.421875 15.226562 -5.046875 16.875 -5.046875 Z M 16.875 -5.046875 "/></g></g></g><g fill="#000000" fill-opacity="1"><g transform="translate(125.802191, 201.749987)"><g><path d="M 21.15625 0 L 15.765625 -7.796875 L 9.796875 -7.796875 L 9.796875 0 L 3.3125 0 L 3.3125 -28 L 15.4375 -28 C 17.914062 -28 20.066406 -27.582031 21.890625 -26.75 C 23.722656 -25.925781 25.128906 -24.753906 26.109375 -23.234375 C 27.097656 -21.710938 27.59375 -19.914062 27.59375 -17.84375 C 27.59375 -15.757812 27.09375 -13.960938 26.09375 -12.453125 C 25.09375 -10.953125 23.675781 -9.800781 21.84375 -9 L 28.125 0 Z M 21.046875 -17.84375 C 21.046875 -19.414062 20.535156 -20.617188 19.515625 -21.453125 C 18.503906 -22.296875 17.023438 -22.71875 15.078125 -22.71875 L 9.796875 -22.71875 L 9.796875 -12.953125 L 15.078125 -12.953125 C 17.023438 -12.953125 18.503906 -13.378906 19.515625 -14.234375 C 20.535156 -15.085938 21.046875 -16.289062 21.046875 -17.84375 Z M 21.046875 -17.84375 "/></g></g></g><g fill="#000000" fill-opacity="1"><g transform="translate(169.599265, 201.749987)"><g><path d="M 28.796875 0 L 28.765625 -16.796875 L 20.515625 -2.953125 L 17.59375 -2.953125 L 9.40625 -16.4375 L 9.40625 0 L 3.3125 0 L 3.3125 -28 L 8.6875 -28 L 19.15625 -10.59375 L 29.484375 -28 L 34.796875 -28 L 34.875 0 Z M 28.796875 0 "/></g></g></g><g fill="#000000" fill-opacity="1"><g transform="translate(222.195461, 201.749987)"><g><path d="M 15.765625 0.484375 C 11.765625 0.484375 8.648438 -0.617188 6.421875 -2.828125 C 4.191406 -5.046875 3.078125 -8.207031 3.078125 -12.3125 L 3.078125 -28 L 9.5625 -28 L 9.5625 -12.5625 C 9.5625 -7.550781 11.640625 -5.046875 15.796875 -5.046875 C 17.828125 -5.046875 19.375 -5.648438 20.4375 -6.859375 C 21.507812 -8.078125 22.046875 -9.976562 22.046875 -12.5625 L 22.046875 -28 L 28.4375 -28 L 28.4375 -12.3125 C 28.4375 -8.207031 27.320312 -5.046875 25.09375 -2.828125 C 22.875 -0.617188 19.765625 0.484375 15.765625 0.484375 Z M 15.765625 0.484375 "/></g></g></g><g fill="#000000" fill-opacity="1"><g transform="translate(268.112312, 201.749987)"><g><path d="M 3.3125 -28 L 9.796875 -28 L 9.796875 -5.28125 L 23.84375 -5.28125 L 23.84375 0 L 3.3125 0 Z M 3.3125 -28 "/></g></g></g><g fill="#000000" fill-opacity="1"><g transform="translate(306.669904, 201.749987)"><g><path d="M 21.765625 -6 L 8.765625 -6 L 6.28125 0 L -0.359375 0 L 12.125 -28 L 18.515625 -28 L 31.046875 0 L 24.234375 0 Z M 19.71875 -10.921875 L 15.28125 -21.640625 L 10.84375 -10.921875 Z M 19.71875 -10.921875 "/></g></g></g><g fill="#000000" fill-opacity="1"><g transform="translate(91.87193, 252.957963)"><g><path d="M 10.65625 0 L 1.8125 0 L 1.8125 -15.765625 L 4.375 -15.765625 L 4.375 -2.28125 L 10.65625 -2.28125 Z M 10.65625 0 "/></g></g></g><g fill="#000000" fill-opacity="1"><g transform="translate(113.846235, 252.957963)"><g><path d="M 1.8125 0 L 1.8125 -15.765625 L 4.375 -15.765625 L 4.375 0 Z M 1.8125 0 "/></g></g></g><g fill="#000000" fill-opacity="1"><g transform="translate(131.081737, 252.957963)"><g><path d="M 1.8125 0 L 1.8125 -15.765625 L 11.59375 -15.765625 L 11.59375 -13.53125 L 4.375 -13.53125 L 4.375 -8.21875 L 10.375 -8.21875 L 10.375 -5.984375 L 4.375 -5.984375 L 4.375 0 Z M 1.8125 0 "/></g></g></g><g fill="#000000" fill-opacity="1"><g transform="translate(154.298256, 252.957963)"><g><path d="M 1.8125 0 L 1.8125 -15.765625 L 11.765625 -15.765625 L 11.765625 -13.53125 L 4.375 -13.53125 L 4.375 -9.0625 L 10.375 -9.0625 L 10.375 -6.859375 L 4.375 -6.859375 L 4.375 -2.25 L 11.765625 -2.25 L 11.765625 0 Z M 1.8125 0 "/></g></g></g><g fill="#000000" fill-opacity="1"><g transform="translate(178.066854, 252.957963)"><g><path d="M 6.4375 -13.78125 C 4.488281 -13.78125 3.515625 -13.097656 3.515625 -11.734375 C 3.515625 -11.023438 3.742188 -10.519531 4.203125 -10.21875 C 4.671875 -9.925781 5.691406 -9.5625 7.265625 -9.125 C 8.835938 -8.6875 9.941406 -8.164062 10.578125 -7.5625 C 11.222656 -6.957031 11.546875 -6 11.546875 -4.6875 C 11.546875 -3.03125 11.070312 -1.789062 10.125 -0.96875 C 9.1875 -0.15625 7.90625 0.25 6.28125 0.25 C 4.976562 0.25 3.535156 0.0976562 1.953125 -0.203125 L 1.125 -0.375 L 1.375 -2.421875 C 3.445312 -2.140625 5.03125 -2 6.125 -2 C 8.019531 -2 8.96875 -2.84375 8.96875 -4.53125 C 8.96875 -5.195312 8.753906 -5.6875 8.328125 -6 C 7.898438 -6.3125 6.929688 -6.65625 5.421875 -7.03125 C 3.921875 -7.40625 2.800781 -7.921875 2.0625 -8.578125 C 1.332031 -9.242188 0.96875 -10.289062 0.96875 -11.71875 C 0.96875 -13.144531 1.429688 -14.222656 2.359375 -14.953125 C 3.285156 -15.679688 4.570312 -16.046875 6.21875 -16.046875 C 7.394531 -16.046875 8.789062 -15.90625 10.40625 -15.625 L 11.203125 -15.484375 L 11 -13.421875 C 8.851562 -13.660156 7.332031 -13.78125 6.4375 -13.78125 Z M 6.4375 -13.78125 "/></g></g></g><g fill="#000000" fill-opacity="1"><g transform="translate(201.605415, 252.957963)"><g><path d="M 0.296875 -13.484375 L 0.296875 -15.765625 L 11.8125 -15.765625 L 11.8125 -13.484375 L 7.359375 -13.484375 L 7.359375 0 L 4.78125 0 L 4.78125 -13.484375 Z M 0.296875 -13.484375 "/></g></g></g><g fill="#000000" fill-opacity="1"><g transform="translate(224.75292, 252.957963)"><g><path d="M 7.625 0 L 5.046875 0 L 5.046875 -6.484375 L 0.09375 -15.765625 L 2.96875 -15.765625 L 6.3125 -9 L 9.671875 -15.765625 L 12.515625 -15.765625 L 7.625 -6.484375 Z M 7.625 0 "/></g></g></g><g fill="#000000" fill-opacity="1"><g transform="translate(248.429509, 252.957963)"><g><path d="M 10.65625 0 L 1.8125 0 L 1.8125 -15.765625 L 4.375 -15.765625 L 4.375 -2.28125 L 10.65625 -2.28125 Z M 10.65625 0 "/></g></g></g><g fill="#000000" fill-opacity="1"><g transform="translate(270.403812, 252.957963)"><g><path d="M 1.8125 0 L 1.8125 -15.765625 L 11.765625 -15.765625 L 11.765625 -13.53125 L 4.375 -13.53125 L 4.375 -9.0625 L 10.375 -9.0625 L 10.375 -6.859375 L 4.375 -6.859375 L 4.375 -2.25 L 11.765625 -2.25 L 11.765625 0 Z M 1.8125 0 "/></g></g></g><path stroke-linecap="round" transform="matrix(2.986566, 0, 0, 2.887218, 31.311708, 244.963081)" fill="none" stroke-linejoin="miter" d="M 0.499898 0.000610635 L 16.07616 0.000610635 " stroke="#000000" stroke-width="1" stroke-opacity="1" stroke-miterlimit="4"/><path stroke-linecap="round" transform="matrix(2.986566, 0, 0, 2.887218, 293.958969, 244.963081)" fill="none" stroke-linejoin="miter" d="M 0.500292 0.000610635 L 16.076554 0.000610635 " stroke="#000000" stroke-width="1" stroke-opacity="1" stroke-miterlimit="4"/><path fill="#ff1801" d="M 207.992188 99.136719 L 207.992188 99.183594 L 166.789062 138.886719 L 208.023438 138.886719 L 249.277344 99.136719 L 207.992188 99.136719 " fill-opacity="1" fill-rule="nonzero"/><path fill="#ff1801" d="M 166.558594 79.246094 L 166.558594 79.292969 L 125.355469 118.996094 L 166.585938 118.996094 L 207.84375 79.246094 L 166.558594 79.246094 " fill-opacity="1" fill-rule="nonzero"/></svg>