<svg xmlns="http://www.w3.org/2000/svg" xmlns:xlink="http://www.w3.org/1999/xlink" width="500" zoomAndPan="magnify" viewBox="0 0 375 299.999988" height="400" preserveAspectRatio="xMidYMid meet" version="1.0"><defs><g/></defs><path fill="#ff1801" d="M 242.796875 73.953125 L 242.796875 74.082031 L 131.910156 180.453125 L 242.878906 180.453125 L 353.90625 73.953125 L 242.796875 73.953125 " fill-opacity="1" fill-rule="nonzero"/><path fill="#ff1801" d="M 131.613281 20.578125 L 131.613281 20.707031 L 20.722656 127.078125 L 131.691406 127.078125 L 242.71875 20.578125 L 131.613281 20.578125 " fill-opacity="1" fill-rule="nonzero"/><g fill="#000000" fill-opacity="1"><g transform="translate(12.588176, 235.4052)"><g><path d="M 11.4375 -26.625 L 11.4375 -17.984375 L 26.578125 -17.984375 L 26.578125 -11.90625 L 11.4375 -11.90625 L 11.4375 0 L 3.875 0 L 3.875 -32.6875 L 28.578125 -32.6875 L 28.578125 -26.625 Z M 11.4375 -26.625 "/></g></g></g><g fill="#000000" fill-opacity="1"><g transform="translate(59.239529, 235.4052)"><g><path d="M 19.703125 0.5625 C 16.316406 0.5625 13.257812 -0.164062 10.53125 -1.625 C 7.800781 -3.09375 5.664062 -5.109375 4.125 -7.671875 C 2.59375 -10.242188 1.828125 -13.132812 1.828125 -16.34375 C 1.828125 -19.550781 2.59375 -22.4375 4.125 -25 C 5.664062 -27.570312 7.800781 -29.585938 10.53125 -31.046875 C 13.257812 -32.515625 16.316406 -33.25 19.703125 -33.25 C 23.097656 -33.25 26.148438 -32.515625 28.859375 -31.046875 C 31.566406 -29.585938 33.695312 -27.570312 35.25 -25 C 36.8125 -22.4375 37.59375 -19.550781 37.59375 -16.34375 C 37.59375 -13.132812 36.8125 -10.242188 35.25 -7.671875 C 33.695312 -5.109375 31.566406 -3.09375 28.859375 -1.625 C 26.148438 -0.164062 23.097656 0.5625 19.703125 0.5625 Z M 19.703125 -5.890625 C 21.640625 -5.890625 23.382812 -6.332031 24.9375 -7.21875 C 26.5 -8.101562 27.722656 -9.335938 28.609375 -10.921875 C 29.492188 -12.515625 29.9375 -14.320312 29.9375 -16.34375 C 29.9375 -18.363281 29.492188 -20.164062 28.609375 -21.75 C 27.722656 -23.34375 26.5 -24.582031 24.9375 -25.46875 C 23.382812 -26.363281 21.640625 -26.8125 19.703125 -26.8125 C 17.773438 -26.8125 16.03125 -26.363281 14.46875 -25.46875 C 12.914062 -24.582031 11.695312 -23.34375 10.8125 -21.75 C 9.925781 -20.164062 9.484375 -18.363281 9.484375 -16.34375 C 9.484375 -14.320312 9.925781 -12.515625 10.8125 -10.921875 C 11.695312 -9.335938 12.914062 -8.101562 14.46875 -7.21875 C 16.03125 -6.332031 17.773438 -5.890625 19.703125 -5.890625 Z M 19.703125 -5.890625 "/></g></g></g><g fill="#000000" fill-opacity="1"><g transform="translate(115.463961, 235.4052)"><g><path d="M 24.703125 0 L 18.40625 -9.109375 L 11.4375 -9.109375 L 11.4375 0 L 3.875 0 L 3.875 -32.6875 L 18.03125 -32.6875 C 20.925781 -32.6875 23.4375 -32.203125 25.5625 -31.234375 C 27.695312 -30.273438 29.335938 -28.90625 30.484375 -27.125 C 31.640625 -25.351562 32.21875 -23.253906 32.21875 -20.828125 C 32.21875 -18.398438 31.632812 -16.304688 30.46875 -14.546875 C 29.300781 -12.785156 27.644531 -11.441406 25.5 -10.515625 L 32.828125 0 Z M 24.5625 -20.828125 C 24.5625 -22.660156 23.96875 -24.066406 22.78125 -25.046875 C 21.601562 -26.035156 19.878906 -26.53125 17.609375 -26.53125 L 11.4375 -26.53125 L 11.4375 -15.125 L 17.609375 -15.125 C 19.878906 -15.125 21.601562 -15.625 22.78125 -16.625 C 23.96875 -17.625 24.5625 -19.023438 24.5625 -20.828125 Z M 24.5625 -20.828125 "/></g></g></g><g fill="#000000" fill-opacity="1"><g transform="translate(166.598311, 235.4052)"><g><path d="M 33.625 0 L 33.578125 -19.609375 L 23.953125 -3.453125 L 20.546875 -3.453125 L 10.96875 -19.1875 L 10.96875 0 L 3.875 0 L 3.875 -32.6875 L 10.140625 -32.6875 L 22.375 -12.375 L 34.421875 -32.6875 L 40.625 -32.6875 L 40.71875 0 Z M 33.625 0 "/></g></g></g><g fill="#000000" fill-opacity="1"><g transform="translate(228.006232, 235.4052)"><g><path d="M 18.40625 0.5625 C 13.726562 0.5625 10.085938 -0.726562 7.484375 -3.3125 C 4.890625 -5.894531 3.59375 -9.585938 3.59375 -14.390625 L 3.59375 -32.6875 L 11.15625 -32.6875 L 11.15625 -14.671875 C 11.15625 -8.816406 13.585938 -5.890625 18.453125 -5.890625 C 20.816406 -5.890625 22.617188 -6.597656 23.859375 -8.015625 C 25.109375 -9.429688 25.734375 -11.648438 25.734375 -14.671875 L 25.734375 -32.6875 L 33.203125 -32.6875 L 33.203125 -14.390625 C 33.203125 -9.585938 31.898438 -5.894531 29.296875 -3.3125 C 26.703125 -0.726562 23.070312 0.5625 18.40625 0.5625 Z M 18.40625 0.5625 "/></g></g></g><g fill="#000000" fill-opacity="1"><g transform="translate(281.615564, 235.4052)"><g><path d="M 3.875 -32.6875 L 11.4375 -32.6875 L 11.4375 -6.171875 L 27.828125 -6.171875 L 27.828125 0 L 3.875 0 Z M 3.875 -32.6875 "/></g></g></g><g fill="#000000" fill-opacity="1"><g transform="translate(326.632482, 235.4052)"><g><path d="M 25.40625 -7 L 10.234375 -7 L 7.328125 0 L -0.421875 0 L 14.15625 -32.6875 L 21.625 -32.6875 L 36.234375 0 L 28.296875 0 Z M 23.03125 -12.75 L 17.84375 -25.265625 L 12.65625 -12.75 Z M 23.03125 -12.75 "/></g></g></g><g fill="#000000" fill-opacity="1"><g transform="translate(81.167698, 273.729498)"><g><path d="M 11.84375 0 L 2.015625 0 L 2.015625 -17.515625 L 4.859375 -17.515625 L 4.859375 -2.53125 L 11.84375 -2.53125 Z M 11.84375 0 "/></g></g></g><g fill="#000000" fill-opacity="1"><g transform="translate(105.602323, 273.729498)"><g><path d="M 2.015625 0 L 2.015625 -17.515625 L 4.859375 -17.515625 L 4.859375 0 Z M 2.015625 0 "/></g></g></g><g fill="#000000" fill-opacity="1"><g transform="translate(124.767046, 273.729498)"><g><path d="M 2.015625 0 L 2.015625 -17.515625 L 12.890625 -17.515625 L 12.890625 -15.046875 L 4.859375 -15.046875 L 4.859375 -9.125 L 11.53125 -9.125 L 11.53125 -6.65625 L 4.859375 -6.65625 L 4.859375 0 Z M 2.015625 0 "/></g></g></g><g fill="#000000" fill-opacity="1"><g transform="translate(150.583102, 273.729498)"><g><path d="M 2.015625 0 L 2.015625 -17.515625 L 13.078125 -17.515625 L 13.078125 -15.046875 L 4.859375 -15.046875 L 4.859375 -10.078125 L 11.53125 -10.078125 L 11.53125 -7.625 L 4.859375 -7.625 L 4.859375 -2.5 L 13.078125 -2.5 L 13.078125 0 Z M 2.015625 0 "/></g></g></g><g fill="#000000" fill-opacity="1"><g transform="translate(177.013115, 273.729498)"><g><path d="M 7.15625 -15.328125 C 4.988281 -15.328125 3.90625 -14.566406 3.90625 -13.046875 C 3.90625 -12.265625 4.160156 -11.707031 4.671875 -11.375 C 5.191406 -11.039062 6.320312 -10.628906 8.0625 -10.140625 C 9.8125 -9.648438 11.046875 -9.066406 11.765625 -8.390625 C 12.484375 -7.722656 12.84375 -6.664062 12.84375 -5.21875 C 12.84375 -3.375 12.316406 -1.992188 11.265625 -1.078125 C 10.210938 -0.171875 8.785156 0.28125 6.984375 0.28125 C 5.535156 0.28125 3.929688 0.109375 2.171875 -0.234375 L 1.25 -0.40625 L 1.53125 -2.6875 C 3.832031 -2.375 5.585938 -2.21875 6.796875 -2.21875 C 8.910156 -2.21875 9.96875 -3.15625 9.96875 -5.03125 C 9.96875 -5.769531 9.726562 -6.3125 9.25 -6.65625 C 8.78125 -7.007812 7.707031 -7.394531 6.03125 -7.8125 C 4.363281 -8.226562 3.117188 -8.800781 2.296875 -9.53125 C 1.484375 -10.269531 1.078125 -11.429688 1.078125 -13.015625 C 1.078125 -14.597656 1.59375 -15.796875 2.625 -16.609375 C 3.65625 -17.421875 5.082031 -17.828125 6.90625 -17.828125 C 8.21875 -17.828125 9.769531 -17.675781 11.5625 -17.375 L 12.453125 -17.21875 L 12.21875 -14.90625 C 9.832031 -15.1875 8.144531 -15.328125 7.15625 -15.328125 Z M 7.15625 -15.328125 "/></g></g></g><g fill="#000000" fill-opacity="1"><g transform="translate(203.187308, 273.729498)"><g><path d="M 0.328125 -14.984375 L 0.328125 -17.515625 L 13.125 -17.515625 L 13.125 -14.984375 L 8.1875 -14.984375 L 8.1875 0 L 5.3125 0 L 5.3125 -14.984375 Z M 0.328125 -14.984375 "/></g></g></g><g fill="#000000" fill-opacity="1"><g transform="translate(228.926601, 273.729498)"><g><path d="M 8.46875 0 L 5.609375 0 L 5.609375 -7.21875 L 0.109375 -17.515625 L 3.296875 -17.515625 L 7.015625 -10 L 10.75 -17.515625 L 13.921875 -17.515625 L 8.46875 -7.21875 Z M 8.46875 0 "/></g></g></g><g fill="#000000" fill-opacity="1"><g transform="translate(255.254282, 273.729498)"><g><path d="M 11.84375 0 L 2.015625 0 L 2.015625 -17.515625 L 4.859375 -17.515625 L 4.859375 -2.53125 L 11.84375 -2.53125 Z M 11.84375 0 "/></g></g></g><g fill="#000000" fill-opacity="1"><g transform="translate(279.688915, 273.729498)"><g><path d="M 2.015625 0 L 2.015625 -17.515625 L 13.078125 -17.515625 L 13.078125 -15.046875 L 4.859375 -15.046875 L 4.859375 -10.078125 L 11.53125 -10.078125 L 11.53125 -7.625 L 4.859375 -7.625 L 4.859375 -2.5 L 13.078125 -2.5 L 13.078125 0 Z M 2.015625 0 "/></g></g></g><path stroke-linecap="round" transform="matrix(2.996204, 0, 0, 2.855018, 12.190184, 264.50623)" fill="none" stroke-linejoin="miter" d="M 0.499738 0.000554428 L 18.02582 0.000554428 " stroke="#000000" stroke-width="1" stroke-opacity="1" stroke-miterlimit="4"/><path stroke-linecap="round" transform="matrix(3.012084, 0, 0, 2.855018, 308.893897, 264.50623)" fill="none" stroke-linejoin="miter" d="M 0.499501 0.000554428 L 17.926703 0.000554428 " stroke="#000000" stroke-width="1" stroke-opacity="1" stroke-miterlimit="4"/></svg>